<svg width="360" height="338" viewBox="0 0 360 338" fill="none" xmlns="http://www.w3.org/2000/svg">
<g clip-path="url(#clip0_8_454)">
<path d="M209.699 59.5855C216.446 59.5855 221.916 52.5247 221.916 43.8148C221.916 35.105 216.446 28.0442 209.699 28.0442C202.952 28.0442 197.483 35.105 197.483 43.8148C197.483 52.5247 202.952 59.5855 209.699 59.5855Z" fill="#F2F2F2"/>
<path d="M304.468 293.639C322.626 275.785 331.299 245.782 325.869 217.161C325.735 216.45 325.592 215.741 325.442 215.033C321.843 198.044 312.937 181.897 299.957 176.469C289.059 171.911 277.163 175.416 265.793 173.604C243.474 170.045 226.17 146.733 213.995 122.324C201.82 97.9157 192.462 70.5939 176.284 50.4288C149.616 17.1902 106.115 10.0339 73.0512 31.6698C39.9873 53.3057 18.926 101.307 19.8242 149.146C20.7225 196.985 42.7223 242.722 74.6715 266.989C86.4084 275.904 99.9832 282.219 113.493 280.009C125.215 278.092 135.866 269.961 147.533 267.547C165.876 263.752 184.103 274.458 199.968 286.934C215.834 299.41 231.159 314.198 249.187 319.982C266.694 325.598 288.382 309.456 304.468 293.639Z" fill="#F2F2F2"/>
<path d="M278.378 32.6743C277.98 32.3317 277.577 32.0069 277.179 31.6761C265.673 22.1761 253.339 14.4583 240.434 8.68237L237.442 61.9702H218.473V0.903607C217.278 0.584659 216.075 0.283432 214.872 -7.62939e-05V61.9702H192.329C179.919 61.9702 168.017 55.6061 159.242 44.278C150.466 32.9498 145.536 17.5856 145.536 1.5652V1.56514C144.328 1.90181 143.13 2.2621 141.931 2.64602V61.9702H123.57L120.72 11.1572C107.458 17.7229 94.8674 26.3572 83.2289 36.8679C83.0276 37.0451 82.8262 37.2282 82.6295 37.4053C81.6183 38.3208 80.6209 39.2541 79.6281 40.1991V243.492H133.741L132.785 226.393L127.523 132.511H233.484L228.223 226.393L227.266 243.492H280.78V34.7297C279.984 34.0328 279.183 33.3477 278.378 32.6743ZM141.931 117.006H126.654L123.831 66.6245H141.931V117.006ZM214.872 117.006H189.213V116.008C189.213 115.528 189.14 115.053 188.997 114.61C188.855 114.167 188.646 113.764 188.383 113.425C188.12 113.086 187.808 112.817 187.464 112.634C187.121 112.451 186.753 112.357 186.381 112.358H175.226C174.855 112.358 174.487 112.452 174.144 112.635C173.801 112.819 173.489 113.088 173.226 113.427C172.964 113.766 172.755 114.168 172.613 114.611C172.471 115.054 172.398 115.529 172.398 116.008V117.006H145.536V66.6245H214.872V117.006ZM218.473 117.006V66.6245H237.181L234.358 117.006H218.473Z" fill="#3F3D56"/>
<path d="M-6.10352e-05 256.511C3.97469 262.591 8.27383 268.304 12.8659 273.61L347.134 274.201C351.726 268.895 356.025 263.181 360 257.101L-6.10352e-05 256.511Z" fill="#3F3D56"/>
<path d="M226.678 201.759V252.379C226.678 253.024 226.877 253.643 227.23 254.099C227.584 254.555 228.063 254.811 228.563 254.812H286.672C287.172 254.811 287.651 254.555 288.004 254.099C288.358 253.643 288.556 253.024 288.557 252.379V201.759C288.555 201.114 288.356 200.496 288.003 200.041C287.65 199.585 287.171 199.329 286.672 199.328H228.563C228.063 199.329 227.585 199.585 227.231 200.041C226.878 200.496 226.679 201.114 226.678 201.759Z" fill="#3F3D56"/>
<path d="M228.041 202.388V251.755C228.042 252.099 228.148 252.43 228.337 252.673C228.526 252.917 228.781 253.054 229.048 253.055H286.188C286.455 253.054 286.711 252.917 286.9 252.673C287.089 252.43 287.195 252.099 287.196 251.755V202.388C287.196 202.043 287.089 201.712 286.901 201.468C286.712 201.224 286.456 201.086 286.188 201.085H229.048C228.781 201.086 228.525 201.224 228.336 201.468C228.147 201.712 228.041 202.043 228.041 202.388Z" fill="black"/>
<path d="M225.463 262.251C225.569 262.424 225.704 262.563 225.858 262.658C226.012 262.753 226.181 262.802 226.352 262.8H288.573C288.744 262.8 288.911 262.751 289.065 262.656C289.219 262.562 289.354 262.424 289.461 262.254C289.568 262.083 289.645 261.884 289.685 261.67C289.725 261.457 289.727 261.234 289.692 261.019L288.727 255.097C288.687 254.855 288.6 254.63 288.476 254.443C288.351 254.255 288.193 254.111 288.014 254.023C287.884 253.958 287.746 253.924 287.607 253.924H227.314C227.175 253.924 227.037 253.958 226.908 254.023C226.729 254.111 226.57 254.255 226.445 254.443C226.321 254.63 226.235 254.855 226.195 255.097L225.229 261.019C225.194 261.234 225.198 261.456 225.238 261.669C225.279 261.882 225.355 262.081 225.463 262.251Z" fill="#2F2E41"/>
<path d="M285.473 256.475H286.942C287.066 256.475 287.166 256.346 287.166 256.187V255.279C287.166 255.12 287.066 254.991 286.942 254.991H285.473C285.349 254.991 285.249 255.12 285.249 255.279V256.187C285.249 256.346 285.349 256.475 285.473 256.475Z" fill="#3F3D56"/>
<path d="M281.64 256.475H283.109C283.233 256.475 283.333 256.346 283.333 256.187V255.279C283.333 255.12 283.233 254.991 283.109 254.991H281.64C281.516 254.991 281.416 255.12 281.416 255.279V256.187C281.416 256.346 281.516 256.475 281.64 256.475Z" fill="#3F3D56"/>
<path d="M277.807 256.475H279.277C279.4 256.475 279.5 256.346 279.5 256.187V255.279C279.5 255.12 279.4 254.991 279.277 254.991H277.807C277.684 254.991 277.584 255.12 277.584 255.279V256.187C277.584 256.346 277.684 256.475 277.807 256.475Z" fill="#3F3D56"/>
<path d="M273.974 256.475H275.444C275.567 256.475 275.667 256.346 275.667 256.187V255.279C275.667 255.12 275.567 254.991 275.444 254.991H273.974C273.851 254.991 273.751 255.12 273.751 255.279V256.187C273.751 256.346 273.851 256.475 273.974 256.475Z" fill="#3F3D56"/>
<path d="M270.141 256.475H271.611C271.734 256.475 271.834 256.346 271.834 256.187V255.279C271.834 255.12 271.734 254.991 271.611 254.991H270.141C270.018 254.991 269.918 255.12 269.918 255.279V256.187C269.918 256.346 270.018 256.475 270.141 256.475Z" fill="#3F3D56"/>
<path d="M266.309 256.475H267.778C267.902 256.475 268.002 256.346 268.002 256.187V255.279C268.002 255.12 267.902 254.991 267.778 254.991H266.309C266.185 254.991 266.085 255.12 266.085 255.279V256.187C266.085 256.346 266.185 256.475 266.309 256.475Z" fill="#3F3D56"/>
<path d="M262.476 256.475H263.945C264.069 256.475 264.169 256.346 264.169 256.187V255.279C264.169 255.12 264.069 254.991 263.945 254.991H262.476C262.352 254.991 262.252 255.12 262.252 255.279V256.187C262.252 256.346 262.352 256.475 262.476 256.475Z" fill="#3F3D56"/>
<path d="M258.643 256.475H260.113C260.236 256.475 260.336 256.346 260.336 256.187V255.279C260.336 255.12 260.236 254.991 260.113 254.991H258.643C258.52 254.991 258.42 255.12 258.42 255.279V256.187C258.42 256.346 258.52 256.475 258.643 256.475Z" fill="#3F3D56"/>
<path d="M254.81 256.475H256.28C256.403 256.475 256.503 256.346 256.503 256.187V255.279C256.503 255.12 256.403 254.991 256.28 254.991H254.81C254.687 254.991 254.587 255.12 254.587 255.279V256.187C254.587 256.346 254.687 256.475 254.81 256.475Z" fill="#3F3D56"/>
<path d="M250.977 256.475H252.447C252.571 256.475 252.671 256.346 252.671 256.187V255.279C252.671 255.12 252.571 254.991 252.447 254.991H250.977C250.854 254.991 250.754 255.12 250.754 255.279V256.187C250.754 256.346 250.854 256.475 250.977 256.475Z" fill="#3F3D56"/>
<path d="M247.145 256.475H248.614C248.738 256.475 248.838 256.346 248.838 256.187V255.279C248.838 255.12 248.738 254.991 248.614 254.991H247.145C247.021 254.991 246.921 255.12 246.921 255.279V256.187C246.921 256.346 247.021 256.475 247.145 256.475Z" fill="#3F3D56"/>
<path d="M243.312 256.475H244.782C244.905 256.475 245.005 256.346 245.005 256.187V255.279C245.005 255.12 244.905 254.991 244.782 254.991H243.312C243.189 254.991 243.089 255.12 243.089 255.279V256.187C243.089 256.346 243.189 256.475 243.312 256.475Z" fill="#3F3D56"/>
<path d="M239.479 256.475H240.949C241.072 256.475 241.172 256.346 241.172 256.187V255.279C241.172 255.12 241.072 254.991 240.949 254.991H239.479C239.356 254.991 239.256 255.12 239.256 255.279V256.187C239.256 256.346 239.356 256.475 239.479 256.475Z" fill="#3F3D56"/>
<path d="M235.646 256.475H237.116C237.239 256.475 237.339 256.346 237.339 256.187V255.279C237.339 255.12 237.239 254.991 237.116 254.991H235.646C235.523 254.991 235.423 255.12 235.423 255.279V256.187C235.423 256.346 235.523 256.475 235.646 256.475Z" fill="#3F3D56"/>
<path d="M231.814 256.475H233.283C233.407 256.475 233.507 256.346 233.507 256.187V255.279C233.507 255.12 233.407 254.991 233.283 254.991H231.814C231.69 254.991 231.59 255.12 231.59 255.279V256.187C231.59 256.346 231.69 256.475 231.814 256.475Z" fill="#3F3D56"/>
<path d="M227.981 256.475H229.45C229.574 256.475 229.674 256.346 229.674 256.187V255.279C229.674 255.12 229.574 254.991 229.45 254.991H227.981C227.857 254.991 227.757 255.12 227.757 255.279V256.187C227.757 256.346 227.857 256.475 227.981 256.475Z" fill="#3F3D56"/>
<path d="M285.518 258.949H286.988C287.111 258.949 287.211 258.82 287.211 258.661V257.753C287.211 257.594 287.111 257.465 286.988 257.465H285.518C285.395 257.465 285.295 257.594 285.295 257.753V258.661C285.295 258.82 285.395 258.949 285.518 258.949Z" fill="#3F3D56"/>
<path d="M281.685 258.949H283.155C283.278 258.949 283.378 258.82 283.378 258.661V257.753C283.378 257.594 283.278 257.465 283.155 257.465H281.685C281.562 257.465 281.462 257.594 281.462 257.753V258.661C281.462 258.82 281.562 258.949 281.685 258.949Z" fill="#3F3D56"/>
<path d="M277.852 258.949H279.322C279.445 258.949 279.545 258.82 279.545 258.661V257.753C279.545 257.594 279.445 257.465 279.322 257.465H277.852C277.729 257.465 277.629 257.594 277.629 257.753V258.661C277.629 258.82 277.729 258.949 277.852 258.949Z" fill="#3F3D56"/>
<path d="M274.019 258.949H275.489C275.613 258.949 275.713 258.82 275.713 258.661V257.753C275.713 257.594 275.613 257.465 275.489 257.465H274.019C273.896 257.465 273.796 257.594 273.796 257.753V258.661C273.796 258.82 273.896 258.949 274.019 258.949Z" fill="#3F3D56"/>
<path d="M270.187 258.949H271.656C271.78 258.949 271.88 258.82 271.88 258.661V257.753C271.88 257.594 271.78 257.465 271.656 257.465H270.187C270.063 257.465 269.963 257.594 269.963 257.753V258.661C269.963 258.82 270.063 258.949 270.187 258.949Z" fill="#3F3D56"/>
<path d="M266.354 258.949H267.824C267.947 258.949 268.047 258.82 268.047 258.661V257.753C268.047 257.594 267.947 257.465 267.824 257.465H266.354C266.231 257.465 266.131 257.594 266.131 257.753V258.661C266.131 258.82 266.231 258.949 266.354 258.949Z" fill="#3F3D56"/>
<path d="M262.521 258.949H263.991C264.114 258.949 264.214 258.82 264.214 258.661V257.753C264.214 257.594 264.114 257.465 263.991 257.465H262.521C262.398 257.465 262.298 257.594 262.298 257.753V258.661C262.298 258.82 262.398 258.949 262.521 258.949Z" fill="#3F3D56"/>
<path d="M258.688 258.949H260.158C260.281 258.949 260.381 258.82 260.381 258.661V257.753C260.381 257.594 260.281 257.465 260.158 257.465H258.688C258.565 257.465 258.465 257.594 258.465 257.753V258.661C258.465 258.82 258.565 258.949 258.688 258.949Z" fill="#3F3D56"/>
<path d="M254.856 258.949H256.325C256.449 258.949 256.549 258.82 256.549 258.661V257.753C256.549 257.594 256.449 257.465 256.325 257.465H254.856C254.732 257.465 254.632 257.594 254.632 257.753V258.661C254.632 258.82 254.732 258.949 254.856 258.949Z" fill="#3F3D56"/>
<path d="M251.023 258.949H252.492C252.616 258.949 252.716 258.82 252.716 258.661V257.753C252.716 257.594 252.616 257.465 252.492 257.465H251.023C250.899 257.465 250.799 257.594 250.799 257.753V258.661C250.799 258.82 250.899 258.949 251.023 258.949Z" fill="#3F3D56"/>
<path d="M247.19 258.949H248.66C248.783 258.949 248.883 258.82 248.883 258.661V257.753C248.883 257.594 248.783 257.465 248.66 257.465H247.19C247.067 257.465 246.967 257.594 246.967 257.753V258.661C246.967 258.82 247.067 258.949 247.19 258.949Z" fill="#3F3D56"/>
<path d="M243.357 258.949H244.827C244.95 258.949 245.05 258.82 245.05 258.661V257.753C245.05 257.594 244.95 257.465 244.827 257.465H243.357C243.234 257.465 243.134 257.594 243.134 257.753V258.661C243.134 258.82 243.234 258.949 243.357 258.949Z" fill="#3F3D56"/>
<path d="M239.524 258.949H240.994C241.117 258.949 241.217 258.82 241.217 258.661V257.753C241.217 257.594 241.117 257.465 240.994 257.465H239.524C239.401 257.465 239.301 257.594 239.301 257.753V258.661C239.301 258.82 239.401 258.949 239.524 258.949Z" fill="#3F3D56"/>
<path d="M235.692 258.949H237.161C237.285 258.949 237.385 258.82 237.385 258.661V257.753C237.385 257.594 237.285 257.465 237.161 257.465H235.692C235.568 257.465 235.468 257.594 235.468 257.753V258.661C235.468 258.82 235.568 258.949 235.692 258.949Z" fill="#3F3D56"/>
<path d="M231.859 258.949H233.329C233.452 258.949 233.552 258.82 233.552 258.661V257.753C233.552 257.594 233.452 257.465 233.329 257.465H231.859C231.735 257.465 231.635 257.594 231.635 257.753V258.661C231.635 258.82 231.735 258.949 231.859 258.949Z" fill="#3F3D56"/>
<path d="M228.026 258.949H229.496C229.619 258.949 229.719 258.82 229.719 258.661V257.753C229.719 257.594 229.619 257.465 229.496 257.465H228.026C227.903 257.465 227.803 257.594 227.803 257.753V258.661C227.803 258.82 227.903 258.949 228.026 258.949Z" fill="#3F3D56"/>
<path d="M253.706 261.918H268.59C268.713 261.918 268.813 261.789 268.813 261.629V260.722C268.813 260.562 268.713 260.433 268.59 260.433H253.706C253.582 260.433 253.482 260.562 253.482 260.722V261.629C253.482 261.789 253.582 261.918 253.706 261.918Z" fill="#3F3D56"/>
<path d="M237.936 211.885H236.635C236.241 211.885 235.921 212.298 235.921 212.808C235.921 213.317 236.241 213.73 236.635 213.73H237.936C238.331 213.73 238.65 213.317 238.65 212.808C238.65 212.298 238.331 211.885 237.936 211.885Z" fill="white"/>
<path d="M252.817 211.885H251.516C251.121 211.885 250.801 212.298 250.801 212.808C250.801 213.317 251.121 213.73 251.516 213.73H252.817C253.211 213.73 253.531 213.317 253.531 212.808C253.531 212.298 253.211 211.885 252.817 211.885Z" fill="white"/>
<path d="M257.033 211.885H255.732C255.337 211.885 255.017 212.298 255.017 212.808C255.017 213.317 255.337 213.73 255.732 213.73H257.033C257.427 213.73 257.747 213.317 257.747 212.808C257.747 212.298 257.427 211.885 257.033 211.885Z" fill="white"/>
<path d="M248.769 211.732H240.683C240.288 211.732 239.968 212.145 239.968 212.654C239.968 213.163 240.288 213.576 240.683 213.576H248.769C249.163 213.576 249.483 213.163 249.483 212.654C249.483 212.145 249.163 211.732 248.769 211.732Z" fill="white"/>
<path d="M268.61 211.732H260.523C260.129 211.732 259.809 212.145 259.809 212.654C259.809 213.163 260.129 213.576 260.523 213.576H268.61C269.004 213.576 269.324 213.163 269.324 212.654C269.324 212.145 269.004 211.732 268.61 211.732Z" fill="white"/>
<path d="M241.904 216.048H240.603C240.209 216.048 239.889 216.46 239.889 216.97C239.889 217.479 240.209 217.892 240.603 217.892H241.904C242.299 217.892 242.619 217.479 242.619 216.97C242.619 216.46 242.299 216.048 241.904 216.048Z" fill="white"/>
<path d="M256.785 216.048H255.484C255.089 216.048 254.769 216.46 254.769 216.97C254.769 217.479 255.089 217.892 255.484 217.892H256.785C257.179 217.892 257.499 217.479 257.499 216.97C257.499 216.46 257.179 216.048 256.785 216.048Z" fill="white"/>
<path d="M261.001 216.048H259.7C259.305 216.048 258.986 216.46 258.986 216.97C258.986 217.479 259.305 217.892 259.7 217.892H261.001C261.395 217.892 261.715 217.479 261.715 216.97C261.715 216.46 261.395 216.048 261.001 216.048Z" fill="white"/>
<path d="M252.737 215.894H244.651C244.256 215.894 243.936 216.307 243.936 216.816C243.936 217.325 244.256 217.738 244.651 217.738H252.737C253.132 217.738 253.451 217.325 253.451 216.816C253.451 216.307 253.132 215.894 252.737 215.894Z" fill="white"/>
<path d="M272.578 215.894H264.491C264.097 215.894 263.777 216.307 263.777 216.816C263.777 217.325 264.097 217.738 264.491 217.738H272.578C272.972 217.738 273.292 217.325 273.292 216.816C273.292 216.307 272.972 215.894 272.578 215.894Z" fill="white"/>
<path d="M245.872 220.21H244.571C244.177 220.21 243.857 220.622 243.857 221.132C243.857 221.641 244.177 222.054 244.571 222.054H245.872C246.267 222.054 246.587 221.641 246.587 221.132C246.587 220.622 246.267 220.21 245.872 220.21Z" fill="white"/>
<path d="M260.753 220.21H259.452C259.057 220.21 258.738 220.622 258.738 221.132C258.738 221.641 259.057 222.054 259.452 222.054H260.753C261.147 222.054 261.467 221.641 261.467 221.132C261.467 220.622 261.147 220.21 260.753 220.21Z" fill="white"/>
<path d="M264.969 220.21H263.668C263.274 220.21 262.954 220.622 262.954 221.132C262.954 221.641 263.274 222.054 263.668 222.054H264.969C265.364 222.054 265.683 221.641 265.683 221.132C265.683 220.622 265.364 220.21 264.969 220.21Z" fill="white"/>
<path d="M256.705 220.056H248.619C248.224 220.056 247.905 220.469 247.905 220.978C247.905 221.487 248.224 221.9 248.619 221.9H256.705C257.1 221.9 257.42 221.487 257.42 220.978C257.42 220.469 257.1 220.056 256.705 220.056Z" fill="white"/>
<path d="M276.546 220.056H268.46C268.065 220.056 267.745 220.469 267.745 220.978C267.745 221.487 268.065 221.9 268.46 221.9H276.546C276.941 221.9 277.26 221.487 277.26 220.978C277.26 220.469 276.941 220.056 276.546 220.056Z" fill="white"/>
<path d="M249.841 224.372H248.539C248.145 224.372 247.825 224.785 247.825 225.294C247.825 225.803 248.145 226.216 248.539 226.216H249.841C250.235 226.216 250.555 225.803 250.555 225.294C250.555 224.785 250.235 224.372 249.841 224.372Z" fill="white"/>
<path d="M264.721 224.372H263.42C263.025 224.372 262.706 224.785 262.706 225.294C262.706 225.803 263.025 226.216 263.42 226.216H264.721C265.116 226.216 265.435 225.803 265.435 225.294C265.435 224.785 265.116 224.372 264.721 224.372Z" fill="white"/>
<path d="M268.937 224.372H267.636C267.242 224.372 266.922 224.785 266.922 225.294C266.922 225.803 267.242 226.216 267.636 226.216H268.937C269.332 226.216 269.651 225.803 269.651 225.294C269.651 224.785 269.332 224.372 268.937 224.372Z" fill="white"/>
<path d="M260.674 224.218H252.587C252.193 224.218 251.873 224.631 251.873 225.14C251.873 225.649 252.193 226.062 252.587 226.062H260.674C261.068 226.062 261.388 225.649 261.388 225.14C261.388 224.631 261.068 224.218 260.674 224.218Z" fill="white"/>
<path d="M252.817 240.922H251.516C251.121 240.922 250.801 241.335 250.801 241.844C250.801 242.353 251.121 242.766 251.516 242.766H252.817C253.211 242.766 253.531 242.353 253.531 241.844C253.531 241.335 253.211 240.922 252.817 240.922Z" fill="white"/>
<path d="M257.033 240.922H255.732C255.337 240.922 255.017 241.335 255.017 241.844C255.017 242.353 255.337 242.766 255.732 242.766H257.033C257.427 242.766 257.747 242.353 257.747 241.844C257.747 241.335 257.427 240.922 257.033 240.922Z" fill="white"/>
<path d="M268.61 241.076H260.523C260.129 241.076 259.809 241.488 259.809 241.998C259.809 242.507 260.129 242.92 260.523 242.92H268.61C269.004 242.92 269.324 242.507 269.324 241.998C269.324 241.488 269.004 241.076 268.61 241.076Z" fill="white"/>
<path d="M237.936 240.922H236.635C236.241 240.922 235.921 241.335 235.921 241.844C235.921 242.353 236.241 242.766 236.635 242.766H237.936C238.331 242.766 238.65 242.353 238.65 241.844C238.65 241.335 238.331 240.922 237.936 240.922Z" fill="white"/>
<path d="M248.769 241.076H240.683C240.288 241.076 239.968 241.488 239.968 241.998C239.968 242.507 240.288 242.92 240.683 242.92H248.769C249.163 242.92 249.483 242.507 249.483 241.998C249.483 241.488 249.163 241.076 248.769 241.076Z" fill="white"/>
<path d="M241.904 236.76H240.603C240.209 236.76 239.889 237.173 239.889 237.682C239.889 238.191 240.209 238.604 240.603 238.604H241.904C242.299 238.604 242.619 238.191 242.619 237.682C242.619 237.173 242.299 236.76 241.904 236.76Z" fill="white"/>
<path d="M256.785 236.76H255.484C255.089 236.76 254.769 237.173 254.769 237.682C254.769 238.191 255.089 238.604 255.484 238.604H256.785C257.179 238.604 257.499 238.191 257.499 237.682C257.499 237.173 257.179 236.76 256.785 236.76Z" fill="white"/>
<path d="M261.001 236.76H259.7C259.305 236.76 258.986 237.173 258.986 237.682C258.986 238.191 259.305 238.604 259.7 238.604H261.001C261.395 238.604 261.715 238.191 261.715 237.682C261.715 237.173 261.395 236.76 261.001 236.76Z" fill="white"/>
<path d="M252.737 236.913H244.651C244.256 236.913 243.936 237.326 243.936 237.835C243.936 238.345 244.256 238.758 244.651 238.758H252.737C253.132 238.758 253.451 238.345 253.451 237.835C253.451 237.326 253.132 236.913 252.737 236.913Z" fill="white"/>
<path d="M245.872 232.598H244.571C244.177 232.598 243.857 233.011 243.857 233.52C243.857 234.029 244.177 234.442 244.571 234.442H245.872C246.267 234.442 246.587 234.029 246.587 233.52C246.587 233.011 246.267 232.598 245.872 232.598Z" fill="white"/>
<path d="M260.753 232.598H259.452C259.057 232.598 258.738 233.011 258.738 233.52C258.738 234.029 259.057 234.442 259.452 234.442H260.753C261.147 234.442 261.467 234.029 261.467 233.52C261.467 233.011 261.147 232.598 260.753 232.598Z" fill="white"/>
<path d="M264.969 232.598H263.668C263.274 232.598 262.954 233.011 262.954 233.52C262.954 234.029 263.274 234.442 263.668 234.442H264.969C265.364 234.442 265.683 234.029 265.683 233.52C265.683 233.011 265.364 232.598 264.969 232.598Z" fill="white"/>
<path d="M256.705 232.751H248.619C248.224 232.751 247.905 233.164 247.905 233.673C247.905 234.183 248.224 234.595 248.619 234.595H256.705C257.1 234.595 257.42 234.183 257.42 233.673C257.42 233.164 257.1 232.751 256.705 232.751Z" fill="white"/>
<path d="M249.841 228.436H248.539C248.145 228.436 247.825 228.848 247.825 229.358C247.825 229.867 248.145 230.28 248.539 230.28H249.841C250.235 230.28 250.555 229.867 250.555 229.358C250.555 228.848 250.235 228.436 249.841 228.436Z" fill="white"/>
<path d="M264.721 228.436H263.42C263.025 228.436 262.706 228.848 262.706 229.358C262.706 229.867 263.025 230.28 263.42 230.28H264.721C265.116 230.28 265.435 229.867 265.435 229.358C265.435 228.848 265.116 228.436 264.721 228.436Z" fill="white"/>
<path d="M268.937 228.436H267.636C267.242 228.436 266.922 228.848 266.922 229.358C266.922 229.867 267.242 230.28 267.636 230.28H268.937C269.332 230.28 269.651 229.867 269.651 229.358C269.651 228.848 269.332 228.436 268.937 228.436Z" fill="white"/>
<path d="M260.674 228.589H252.587C252.193 228.589 251.873 229.002 251.873 229.511C251.873 230.021 252.193 230.433 252.587 230.433H260.674C261.068 230.433 261.388 230.021 261.388 229.511C261.388 229.002 261.068 228.589 260.674 228.589Z" fill="white"/>
<path d="M231.019 289.699L224.911 277.236L244.083 257.507L251.996 246.189C253.024 244.719 254.333 243.623 255.792 243.01C257.251 242.398 258.809 242.29 260.311 242.698C261.812 243.106 263.204 244.016 264.348 245.336C265.492 246.657 266.347 248.342 266.828 250.222C267.542 253.009 267.388 256.045 266.401 258.689C265.413 261.333 263.668 263.378 261.535 264.392L249.021 270.343L231.019 289.699Z" fill="#FFB6B6"/>
<path d="M87.7054 199.331V259.907H120.58V199.331C120.58 198.895 120.472 198.471 120.272 198.12C120.072 197.769 119.79 197.51 119.468 197.382C119.316 197.317 119.157 197.285 118.996 197.287H89.2931C89.0849 197.287 88.8786 197.339 88.6861 197.441C88.4936 197.544 88.3186 197.694 88.1712 197.884C88.0237 198.074 87.9067 198.299 87.8268 198.548C87.7469 198.796 87.7056 199.062 87.7054 199.331ZM100.535 220.145C100.543 218.951 100.917 217.809 101.574 216.969C102.231 216.128 103.119 215.657 104.044 215.657C104.969 215.657 105.857 216.128 106.514 216.969C107.171 217.809 107.545 218.951 107.553 220.145V227.174C107.549 228.371 107.177 229.517 106.519 230.362C105.862 231.207 104.972 231.681 104.044 231.681C103.116 231.681 102.227 231.207 101.569 230.362C100.911 229.517 100.54 228.371 100.535 227.174V220.145Z" fill="#2F2E41"/>
<path d="M87.6049 257.97V263.811C87.6056 264.114 87.6987 264.404 87.864 264.618C88.0294 264.833 88.2535 264.954 88.4879 264.957H119.797C120.032 264.955 120.256 264.834 120.422 264.619C120.587 264.405 120.68 264.114 120.68 263.811V257.97H87.6049Z" fill="#3F3D56"/>
<path d="M35.9899 108.065V218.668C35.9907 220.078 36.4249 221.429 37.1969 222.426C37.969 223.423 39.0159 223.983 40.1077 223.984H167.074C168.166 223.983 169.213 223.423 169.985 222.426C170.757 221.429 171.191 220.078 171.192 218.668V108.065C171.19 106.656 170.755 105.307 169.983 104.312C169.211 103.316 168.165 102.756 167.074 102.755H40.1077C39.0168 102.756 37.9709 103.316 37.1991 104.312C36.4273 105.307 35.9925 106.656 35.9899 108.065Z" fill="#3F3D56"/>
<path d="M38.9685 109.441V217.304C38.9695 218.057 39.2017 218.779 39.6142 219.311C40.0267 219.844 40.5859 220.144 41.1693 220.145H166.018C166.601 220.144 167.16 219.844 167.573 219.311C167.985 218.779 168.217 218.057 168.218 217.304V109.441C168.218 108.687 167.987 107.964 167.574 107.43C167.161 106.896 166.602 106.595 166.018 106.594H41.1693C40.5852 106.595 40.0255 106.896 39.6129 107.43C39.2003 107.964 38.9686 108.687 38.9685 109.441Z" fill="white"/>
<path d="M62.1382 264.561C62.2653 264.767 62.4268 264.933 62.6107 265.046C62.7945 265.16 62.9959 265.218 63.1997 265.217H137.476C137.68 265.217 137.88 265.158 138.063 265.045C138.247 264.932 138.408 264.768 138.536 264.564C138.664 264.36 138.755 264.122 138.803 263.868C138.851 263.613 138.854 263.347 138.812 263.091L137.659 256.021C137.612 255.732 137.509 255.464 137.36 255.24C137.211 255.016 137.022 254.844 136.808 254.739C136.654 254.661 136.489 254.621 136.323 254.621H64.3481C64.1822 254.621 64.0177 254.661 63.8632 254.739C63.6498 254.844 63.4601 255.016 63.3114 255.24C63.1628 255.464 63.0599 255.732 63.0121 256.021L61.8591 263.091C61.8181 263.347 61.8219 263.612 61.8702 263.867C61.9184 264.121 62.01 264.358 62.1382 264.561Z" fill="#2F2E41"/>
<path d="M161.966 121.452H45.1458C45.0243 121.449 44.9088 121.384 44.8239 121.272C44.7389 121.16 44.6914 121.01 44.6914 120.853C44.6914 120.696 44.7389 120.545 44.8239 120.433C44.9088 120.321 45.0243 120.257 45.1458 120.253H161.966C162.087 120.257 162.203 120.321 162.288 120.433C162.373 120.545 162.42 120.696 162.42 120.853C162.42 121.01 162.373 121.16 162.288 121.272C162.203 121.384 162.087 121.449 161.966 121.452Z" fill="#3F3D56"/>
<path d="M53.0979 117.191C54.6015 117.191 55.8205 115.582 55.8205 113.598C55.8205 111.614 54.6015 110.005 53.0979 110.005C51.5943 110.005 50.3754 111.614 50.3754 113.598C50.3754 115.582 51.5943 117.191 53.0979 117.191Z" fill="#3F3D56"/>
<path d="M62.5031 117.191C64.0067 117.191 65.2256 115.582 65.2256 113.598C65.2256 111.614 64.0067 110.005 62.5031 110.005C60.9994 110.005 59.7805 111.614 59.7805 113.598C59.7805 115.582 60.9994 117.191 62.5031 117.191Z" fill="#3F3D56"/>
<path d="M71.9082 117.191C73.4118 117.191 74.6308 115.582 74.6308 113.598C74.6308 111.614 73.4118 110.005 71.9082 110.005C70.4046 110.005 69.1857 111.614 69.1857 113.598C69.1857 115.582 70.4046 117.191 71.9082 117.191Z" fill="#3F3D56"/>
<path d="M156.302 110.894H149.622C149.49 110.898 149.365 110.968 149.272 111.09C149.18 111.212 149.128 111.376 149.128 111.546C149.128 111.717 149.18 111.881 149.272 112.003C149.365 112.125 149.49 112.195 149.622 112.199H156.302C156.435 112.197 156.562 112.127 156.655 112.005C156.749 111.883 156.801 111.718 156.801 111.546C156.801 111.375 156.749 111.21 156.655 111.088C156.562 110.966 156.435 110.896 156.302 110.894Z" fill="#3F3D56"/>
<path d="M156.302 113.345H149.622C149.49 113.349 149.364 113.419 149.272 113.541C149.18 113.663 149.128 113.827 149.128 113.998C149.128 114.168 149.18 114.332 149.272 114.454C149.364 114.576 149.49 114.646 149.622 114.65H156.302C156.435 114.648 156.562 114.578 156.656 114.456C156.749 114.334 156.802 114.169 156.802 113.998C156.802 113.826 156.749 113.661 156.656 113.539C156.562 113.417 156.435 113.347 156.302 113.345Z" fill="#3F3D56"/>
<path d="M156.302 115.796H149.622C149.49 115.8 149.365 115.871 149.272 115.992C149.18 116.114 149.128 116.278 149.128 116.449C149.128 116.619 149.18 116.783 149.272 116.905C149.365 117.027 149.49 117.097 149.622 117.101H156.302C156.435 117.099 156.562 117.029 156.655 116.907C156.749 116.785 156.801 116.62 156.801 116.449C156.801 116.277 156.749 116.113 156.655 115.99C156.562 115.868 156.435 115.798 156.302 115.796Z" fill="#3F3D56"/>
<path d="M317.346 260.533C317.548 261.291 317.93 261.947 318.439 262.406C318.947 262.866 319.555 263.106 320.175 263.091L332.296 262.689C332.921 262.673 333.526 262.397 334.019 261.901C334.512 261.405 334.868 260.717 335.033 259.938L336.748 236.261C337.357 236.617 338.019 236.793 338.687 236.775C339.267 236.756 339.839 236.59 340.37 236.286C340.9 235.982 341.379 235.546 341.779 235.003C342.179 234.46 342.493 233.821 342.701 233.121C342.91 232.422 343.01 231.677 342.995 230.927C342.981 230.178 342.852 229.44 342.616 228.755C342.381 228.07 342.043 227.452 341.622 226.936C341.202 226.419 340.707 226.015 340.165 225.745C339.623 225.476 339.046 225.347 338.465 225.366C338.198 225.365 337.932 225.401 337.671 225.473C337.387 225.076 337.042 224.761 336.658 224.547C336.274 224.333 335.859 224.225 335.441 224.231L316.796 224.852C316.641 224.859 316.487 224.884 316.336 224.926C315.927 225.024 315.539 225.235 315.199 225.543C314.858 225.851 314.573 226.249 314.361 226.712C314.15 227.174 314.018 227.69 313.974 228.224C313.93 228.758 313.975 229.298 314.106 229.807L317.346 260.533ZM337.1 234.653L338.32 229.011C338.459 228.359 338.462 227.672 338.33 227.018C338.389 227.018 338.441 226.981 338.5 226.981C339.337 226.959 340.147 227.366 340.752 228.113C341.357 228.86 341.707 229.886 341.727 230.966C341.746 232.047 341.433 233.093 340.856 233.876C340.279 234.659 339.485 235.114 338.648 235.142C338.107 235.164 337.572 234.995 337.1 234.653Z" fill="#2F2E41"/>
<path d="M316.336 224.926C316.733 227.858 321.199 229.919 326.569 229.561C331.507 229.267 335.545 227.029 336.285 224.376C336.011 224.271 335.726 224.222 335.441 224.231L316.796 224.852C316.641 224.859 316.487 224.884 316.336 224.926Z" fill="#3F3D56"/>
<path d="M327.553 247.523C327.578 247.515 327.601 247.501 327.622 247.483L330.255 245.259C330.287 245.232 330.313 245.196 330.331 245.153C330.349 245.11 330.358 245.061 330.358 245.012C330.358 244.963 330.349 244.915 330.331 244.872C330.313 244.829 330.287 244.792 330.255 244.765L327.519 242.452C327.494 242.43 327.466 242.416 327.436 242.408C327.407 242.401 327.376 242.401 327.347 242.409C327.317 242.417 327.289 242.432 327.264 242.454C327.239 242.476 327.218 242.504 327.201 242.536C327.185 242.569 327.174 242.605 327.168 242.643C327.162 242.682 327.163 242.721 327.169 242.759C327.175 242.797 327.187 242.833 327.204 242.865C327.221 242.897 327.243 242.924 327.268 242.946L329.712 245.012L327.372 246.989C327.327 247.027 327.293 247.085 327.278 247.152C327.263 247.219 327.266 247.291 327.288 247.355C327.31 247.419 327.348 247.471 327.397 247.502C327.445 247.532 327.501 247.54 327.553 247.523H327.553Z" fill="black"/>
<path d="M323.396 247.77C323.44 247.756 323.48 247.724 323.51 247.681C323.541 247.637 323.56 247.582 323.566 247.524C323.573 247.466 323.565 247.406 323.545 247.353C323.525 247.301 323.493 247.257 323.454 247.228L321.027 245.432L323.372 243.183C323.396 243.16 323.417 243.131 323.432 243.098C323.448 243.064 323.458 243.028 323.462 242.989C323.467 242.951 323.465 242.912 323.458 242.874C323.45 242.837 323.437 242.801 323.42 242.77C323.402 242.739 323.379 242.713 323.353 242.693C323.328 242.673 323.299 242.66 323.269 242.654C323.24 242.649 323.209 242.651 323.18 242.66C323.151 242.669 323.124 242.686 323.1 242.709L320.474 245.227C320.444 245.256 320.419 245.295 320.403 245.339C320.387 245.384 320.38 245.433 320.382 245.481C320.384 245.53 320.396 245.578 320.416 245.619C320.436 245.661 320.464 245.696 320.497 245.72L323.226 247.74C323.277 247.778 323.338 247.789 323.396 247.77Z" fill="black"/>
<path d="M327.292 249.472C327.314 249.464 327.335 249.453 327.354 249.437C327.38 249.417 327.402 249.391 327.42 249.36C327.438 249.328 327.451 249.293 327.458 249.255C327.465 249.217 327.466 249.178 327.462 249.14C327.457 249.102 327.447 249.065 327.431 249.032L323.7 241.112C323.668 241.045 323.617 240.997 323.558 240.979C323.499 240.961 323.437 240.973 323.385 241.014C323.333 241.055 323.296 241.12 323.282 241.196C323.268 241.272 323.277 241.353 323.309 241.42L327.04 249.339C327.066 249.393 327.104 249.435 327.149 249.459C327.194 249.483 327.244 249.487 327.292 249.472Z" fill="black"/>
<path d="M117.514 154.056H97.2949C96.47 154.056 95.8014 154.919 95.8014 155.984V158.534C95.8014 159.598 96.47 160.462 97.2949 160.462H117.514C118.339 160.462 119.007 159.598 119.007 158.534V155.984C119.007 154.919 118.339 154.056 117.514 154.056Z" fill="black"/>
<path d="M129.299 166.868H85.5094C84.6845 166.868 84.0159 167.731 84.0159 168.796V171.346C84.0159 172.41 84.6845 173.274 85.5094 173.274H129.299C130.124 173.274 130.793 172.41 130.793 171.346V168.796C130.793 167.731 130.124 166.868 129.299 166.868Z" fill="#E6E6E6"/>
<path d="M129.299 179.679H85.5094C84.6845 179.679 84.0159 180.543 84.0159 181.607V184.157C84.0159 185.222 84.6845 186.085 85.5094 186.085H129.299C130.124 186.085 130.793 185.222 130.793 184.157V181.607C130.793 180.543 130.124 179.679 129.299 179.679Z" fill="#E6E6E6"/>
<path d="M133.011 222.581L133.111 222.986L133.116 222.999L136.101 234.716L139.536 248.219L145.997 273.594L146.06 277.535V277.549L146.54 309.257L145.209 313.556L146.707 320.604C146.707 320.604 146.018 309.95 142.323 316.068C140.23 319.545 137.782 323.103 135.773 326.438C138.701 327.967 141.676 329.351 144.698 330.588C145.35 330.858 146.008 331.114 146.666 331.37C146.806 331.424 146.947 331.478 147.088 331.532C157.106 335.356 167.462 337.505 177.904 337.926C178.447 337.946 178.979 337.96 179.496 337.973C179.679 337.98 179.856 337.987 180.033 337.987C180.618 337.993 181.197 338 181.782 338C182.962 338 184.136 337.978 185.305 337.933C193.959 337.618 202.562 336.116 210.969 333.452C210.912 328.971 210.755 323.736 210.531 318.144C210.426 315.401 208.083 312.43 207.942 309.56C207.843 307.403 209.946 305.375 209.836 303.185C209.127 289.703 208.239 294.879 207.582 285.331C207.514 284.394 207.451 283.498 207.394 282.643C206.971 276.511 206.679 272.677 206.679 272.677L209.487 249.829L213.897 213.957L213.558 213.236L213.177 212.993L189.914 198.13L188.651 193.952C188.283 192.749 187.644 191.715 186.817 190.984C185.99 190.252 185.013 189.857 184.011 189.849L168.686 189.768C167.891 189.763 167.106 190.004 166.397 190.469C165.689 190.934 165.076 191.611 164.61 192.443L160.461 199.861L133.011 222.581Z" fill="#3F3D56"/>
<path d="M149.531 267.947L146.06 277.535L143.69 284.085L139.614 311.636L137.573 314.432L135.825 304.533L117.524 309.779C116.924 305.473 117.364 309.924 116.993 305.201C117.097 305.066 117.207 304.931 117.317 304.797C117.609 304.446 117.854 304.116 117.849 303.8C117.64 287.507 118.266 259.781 123.496 242.984C124.315 240.241 125.395 237.64 126.712 235.242C126.816 235.06 126.915 234.878 127.014 234.696C129.426 230.337 130.95 226.045 133.111 222.992V222.986C133.124 222.972 133.136 222.956 133.147 222.938C133.155 222.933 133.162 222.927 133.168 222.918L148.012 212.758L148.649 235.855L149.103 252.457L149.531 267.947Z" fill="#3F3D56"/>
<path d="M203.056 270.671L207.392 282.646L208.905 286.816L212.98 314.365L215.014 317.154L216.767 307.258L217.59 307.04L232.441 303.069L236.77 320.816C237.745 318.718 238.13 316.249 237.858 313.827C237.586 311.404 236.675 309.178 235.278 307.523C234.982 307.178 234.736 306.842 234.743 306.524C234.989 287.362 234.081 252.371 225.881 237.97C223.277 233.4 221.715 228.848 219.441 225.668C219.434 225.659 219.434 225.65 219.427 225.65L213.895 213.956L213.557 213.238L213.177 212.993L203.056 270.671Z" fill="#3F3D56"/>
<path d="M176.791 184.138C188.051 184.138 197.178 172.355 197.178 157.82C197.178 143.285 188.051 131.502 176.791 131.502C165.532 131.502 156.404 143.285 156.404 157.82C156.404 172.355 165.532 184.138 176.791 184.138Z" fill="#FFB6B6"/>
<path d="M204.347 139.437C204.189 139.219 203.998 139.045 203.787 138.924C203.575 138.803 203.347 138.739 203.116 138.734L203.422 137.636C203.522 137.29 203.549 136.915 203.501 136.551C203.452 136.188 203.329 135.847 203.145 135.564C202.96 135.282 202.721 135.068 202.451 134.944C202.182 134.82 201.892 134.791 201.611 134.86L200.494 135.137L200.599 134.174C200.64 133.816 200.607 133.45 200.505 133.113C200.402 132.775 200.234 132.478 200.015 132.25C199.797 132.023 199.536 131.872 199.259 131.814C198.982 131.756 198.698 131.792 198.435 131.918C198.196 132.04 197.939 132.091 197.682 132.067C197.426 132.044 197.176 131.946 196.953 131.782C196.728 131.623 196.533 131.403 196.382 131.137C196.23 130.871 196.125 130.565 196.074 130.241L195.685 127.819L195.644 127.689C193.75 123.614 190.108 120.649 185.652 119.562C181.685 118.587 177.617 119.083 173.696 119.55C172.141 119.739 170.384 119.952 168.919 121.109C167.675 122.102 166.623 124.086 166.838 126.089C162.972 124.559 158.826 127.612 156.772 131.463C154.338 136.047 153.94 141.788 153.876 146.277C153.702 156.896 155.399 165.585 158.909 172.106C159.165 172.578 159.229 173.564 159.737 173.895L159.631 173.677C160.199 174.043 160.775 174.633 160.56 175.265C159.943 177.085 164.047 181.107 166.938 182.436C172.214 184.863 179.228 184.657 184.16 183.783L184.334 182.276C186.114 181.963 187.367 181.367 187.72 180.434C188.342 179.748 188.873 179.134 189.335 178.567L189.339 178.561C189.349 178.549 189.367 178.532 189.376 178.52C191.604 175.762 192.121 174.191 192.355 171.798C192.579 169.454 192.181 167.073 191.774 164.929C200.348 166.642 188.397 153.14 196.385 150.529C196.477 150.493 196.57 150.463 196.665 150.441C196.898 150.37 197.131 150.299 197.355 150.216C198.436 149.838 199.471 149.267 200.43 148.521C202.663 146.767 203.4 144.44 204.553 141.817C204.719 141.444 204.789 141.012 204.752 140.584C204.715 140.156 204.573 139.754 204.347 139.437Z" fill="#2F2E41"/>
<path d="M248.897 272.544C248.892 273.578 248.883 275.025 248.847 276.815C248.842 277.063 248.838 277.317 248.833 277.577C248.773 280.867 248.714 283.625 248.618 286.69C248.613 286.903 248.609 287.11 248.6 287.322C248.472 291.598 248.27 296.578 247.922 304.463C247.277 319.028 246.152 306.465 245.022 311.574C244.967 311.828 244.907 312.129 244.852 312.484C244.681 313.769 244.393 315.024 243.992 316.222C243.393 316.683 242.775 317.126 242.167 317.569C240.433 318.815 238.671 320.014 236.896 321.154C235.898 321.792 234.896 322.418 233.89 323.021C233.73 323.115 233.574 323.21 233.419 323.298C228.264 326.376 222.952 328.993 217.519 331.13C216.458 331.544 215.401 331.945 214.33 332.317C213.214 332.719 212.097 333.097 210.967 333.451C202.56 336.116 193.957 337.619 185.304 337.934C184.137 337.982 182.961 337.999 181.781 337.999C181.195 337.999 180.619 337.994 180.033 337.988C179.855 337.988 179.676 337.982 179.498 337.976C178.981 337.958 178.445 337.946 177.905 337.929C167.464 337.508 157.108 335.358 147.09 331.532L146.665 331.372C146.006 331.113 145.352 330.859 144.697 330.587C141.678 329.352 138.702 327.97 135.771 326.441C133.533 325.277 131.322 324.029 129.137 322.696C129.117 322.689 129.098 322.677 129.082 322.66C128.624 322.389 128.162 322.105 127.704 321.816C127.645 321.774 127.581 321.733 127.517 321.692C125.81 320.617 124.122 319.491 122.452 318.313C121.047 314.149 119.071 313.352 117.844 309.69C117.488 308.602 117.23 307.464 117.076 306.3C117.076 306.288 117.071 306.276 117.071 306.258C117.199 308.455 116.527 302.36 117.067 306.235C117.062 306.164 117.058 306.087 117.053 305.998C117.039 305.786 117.021 305.526 116.993 305.201C115.424 285.42 115.525 262.799 114.843 244.158C114.797 242.953 114.75 241.799 114.701 240.697C114.688 240.331 114.669 239.97 114.651 239.616C114.683 239.51 114.72 239.397 114.761 239.291C114.769 239.261 114.78 239.231 114.793 239.203C114.806 239.166 114.821 239.13 114.838 239.096C114.848 239.079 114.861 239.055 114.871 239.037C114.877 239.017 114.885 238.997 114.893 238.978C114.935 238.895 114.98 238.807 115.031 238.724C115.054 238.689 115.072 238.659 115.095 238.63C115.11 238.599 115.129 238.572 115.15 238.547C115.164 238.519 115.181 238.493 115.2 238.47C115.218 238.447 115.237 238.417 115.259 238.388C115.269 238.369 115.282 238.353 115.296 238.34C115.332 238.287 115.372 238.237 115.415 238.193C115.578 237.999 115.753 237.821 115.937 237.661C116.001 237.608 116.069 237.555 116.133 237.496C116.594 237.14 117.08 236.839 117.584 236.598C117.758 236.515 117.931 236.438 118.119 236.356C118.188 236.332 118.252 236.303 118.32 236.273C118.421 236.232 118.522 236.19 118.627 236.161C119.148 235.96 119.711 235.789 120.32 235.629C120.393 235.611 120.471 235.594 120.549 235.57C120.658 235.541 120.773 235.517 120.887 235.493C121.043 235.458 121.203 235.422 121.363 235.387C122.722 235.109 124.264 234.903 125.966 234.767C126.126 234.755 126.286 234.743 126.446 234.731C126.634 234.72 126.821 234.708 127.014 234.696C127.174 234.684 127.338 234.678 127.503 234.672C127.663 234.661 127.828 234.655 127.997 234.649C128.459 234.631 128.935 234.613 129.42 234.601C130.802 234.566 132.257 234.578 133.785 234.619C134.494 234.643 135.217 234.666 135.958 234.708C136.009 234.708 136.055 234.714 136.1 234.714C136.745 234.743 137.395 234.779 138.063 234.826C138.53 234.855 139.001 234.885 139.472 234.92C139.916 234.956 140.364 234.991 140.817 235.033C141.17 235.056 141.522 235.092 141.879 235.121C142.181 235.151 142.483 235.18 142.785 235.204L143.197 235.239C143.421 235.263 143.645 235.281 143.874 235.31C144.377 235.363 144.88 235.417 145.393 235.47C145.901 235.529 146.418 235.588 146.935 235.647C147.452 235.706 147.973 235.771 148.495 235.836C148.55 235.842 148.6 235.848 148.651 235.854C149.126 235.919 149.602 235.978 150.083 236.043C150.192 236.054 150.307 236.066 150.417 236.084C150.875 236.143 151.342 236.213 151.804 236.276C151.946 236.296 152.087 236.315 152.229 236.335C152.591 236.386 152.948 236.43 153.313 236.486C153.793 236.557 154.283 236.621 154.759 236.704C155.129 236.757 155.5 236.811 155.87 236.87C156.451 236.958 157.042 237.053 157.632 237.153C157.856 237.189 158.08 237.224 158.305 237.265C159.988 237.537 161.69 237.838 163.42 238.151C166.041 238.63 168.704 239.149 171.386 239.711C174.071 240.272 176.772 240.864 179.489 241.488C180.175 241.648 180.861 241.807 181.552 241.973C181.863 242.049 182.174 242.126 182.485 242.203C183.016 242.327 183.547 242.457 184.078 242.587C184.608 242.717 185.139 242.847 185.67 242.983C186.301 243.142 186.937 243.302 187.569 243.461C191.728 244.524 195.864 245.658 199.899 246.845C200.563 247.04 201.226 247.241 201.885 247.436C203.203 247.832 204.508 248.233 205.802 248.641C206.158 248.747 206.511 248.86 206.863 248.972C207.741 249.255 208.62 249.539 209.485 249.828L209.636 249.881C210.272 250.082 210.894 250.289 211.516 250.502C212.985 250.998 214.429 251.5 215.849 252.008C216.792 252.344 217.723 252.685 218.645 253.03C220.022 253.543 221.372 254.063 222.685 254.589C223.01 254.719 223.334 254.849 223.655 254.973C224.615 255.357 225.563 255.746 226.482 256.136C227.214 256.443 227.928 256.756 228.633 257.07C229.337 257.383 230.028 257.696 230.705 258.009C231.14 258.209 231.57 258.422 232 258.623C232.618 258.918 233.226 259.214 233.821 259.509C234.004 259.597 234.183 259.692 234.361 259.781C234.475 259.846 234.585 259.899 234.695 259.958C234.91 260.07 235.13 260.176 235.34 260.289C235.555 260.395 235.766 260.507 235.976 260.625C236.182 260.731 236.393 260.844 236.594 260.956C236.8 261.062 237.001 261.174 237.202 261.293C237.372 261.381 237.536 261.476 237.696 261.57C238.021 261.753 238.346 261.936 238.662 262.125C238.817 262.22 238.973 262.309 239.129 262.403L239.485 262.616C239.536 262.651 239.586 262.681 239.636 262.71C239.751 262.781 239.87 262.858 239.984 262.929C240.25 263.088 240.51 263.259 240.767 263.419C241.11 263.643 241.444 263.868 241.764 264.086C242.089 264.311 242.405 264.535 242.707 264.754C242.757 264.789 242.803 264.825 242.853 264.86C242.922 264.907 242.99 264.961 243.059 265.008C243.292 265.179 243.516 265.356 243.741 265.528C244.18 265.876 244.596 266.219 244.985 266.561C245.072 266.638 245.154 266.715 245.241 266.786C245.53 267.051 245.804 267.311 246.06 267.577C246.06 267.583 246.06 267.583 246.065 267.583C246.152 267.666 246.234 267.754 246.316 267.837C246.385 267.92 246.458 267.99 246.527 268.073C246.765 268.339 246.984 268.593 247.186 268.853C247.253 268.933 247.317 269.018 247.378 269.107C247.405 269.135 247.429 269.167 247.451 269.201C247.543 269.319 247.625 269.438 247.703 269.556C247.715 269.572 247.726 269.59 247.735 269.609C247.845 269.774 247.945 269.94 248.041 270.105C248.087 270.188 248.137 270.27 248.179 270.353C248.234 270.453 248.288 270.56 248.334 270.66C248.375 270.743 248.412 270.831 248.449 270.914C248.546 271.127 248.628 271.35 248.696 271.582C248.747 271.738 248.788 271.9 248.819 272.066C248.854 272.223 248.88 272.383 248.897 272.544Z" fill="#2F2E41"/>
<path opacity="0.2" d="M248.897 272.544C248.893 273.578 248.883 275.025 248.847 276.815C248.842 277.063 248.833 277.317 248.829 277.577C248.783 280.087 248.714 283.188 248.618 286.69C248.613 286.903 248.609 287.11 248.6 287.322C248.472 291.599 248.27 296.578 247.923 304.463C247.277 319.028 246.152 306.465 245.022 311.574C241.883 309.082 238.442 306.471 234.764 303.789C234.1 303.305 233.431 302.819 232.755 302.331C225.398 297.032 217.181 291.48 208.602 285.982C208.263 285.763 207.92 285.544 207.581 285.332C187.93 272.792 166.481 260.596 149.104 252.457C145.75 250.886 142.547 249.468 139.536 248.222C133.195 245.605 127.714 243.774 123.495 242.983C119.103 242.156 116.069 242.451 114.843 244.158C114.797 242.953 114.75 241.799 114.701 240.697C114.683 240.331 114.665 239.97 114.646 239.616C114.675 239.519 114.711 239.426 114.747 239.332C114.752 239.319 114.756 239.305 114.761 239.291C114.77 239.261 114.78 239.231 114.793 239.203C114.806 239.166 114.822 239.13 114.839 239.096C114.853 239.054 114.872 239.015 114.893 238.978C114.935 238.895 114.98 238.807 115.031 238.724C115.068 238.662 115.107 238.603 115.15 238.547C115.164 238.519 115.181 238.493 115.2 238.47C115.218 238.447 115.237 238.417 115.259 238.387C115.269 238.369 115.282 238.353 115.296 238.34C115.332 238.287 115.372 238.237 115.415 238.193C115.578 237.999 115.753 237.821 115.937 237.661C116.001 237.608 116.069 237.555 116.133 237.496C116.594 237.14 117.08 236.839 117.584 236.598C117.758 236.515 117.931 236.438 118.119 236.356C118.188 236.332 118.252 236.303 118.32 236.273C118.421 236.232 118.522 236.19 118.627 236.161C119.149 235.96 119.711 235.789 120.32 235.629C120.503 235.582 120.695 235.535 120.887 235.493C121.043 235.458 121.203 235.422 121.363 235.387C122.722 235.109 124.264 234.903 125.966 234.767C126.126 234.755 126.286 234.743 126.446 234.731C126.634 234.72 126.821 234.708 127.014 234.696C127.174 234.684 127.338 234.678 127.503 234.672C127.663 234.661 127.828 234.655 127.997 234.649C128.459 234.631 128.935 234.613 129.42 234.601C130.802 234.572 132.257 234.584 133.785 234.625C134.494 234.643 135.217 234.672 135.958 234.714C136.004 234.714 136.055 234.72 136.1 234.72C136.745 234.743 137.4 234.785 138.063 234.826C138.53 234.855 139.001 234.885 139.472 234.92C139.916 234.956 140.365 234.991 140.818 235.033C141.17 235.056 141.522 235.092 141.879 235.121C142.181 235.151 142.483 235.18 142.785 235.204C143.146 235.239 143.508 235.275 143.874 235.31C144.377 235.363 144.88 235.417 145.393 235.47C145.901 235.529 146.418 235.588 146.935 235.647C147.452 235.706 147.973 235.771 148.495 235.836C148.55 235.842 148.6 235.848 148.651 235.854C149.126 235.919 149.602 235.978 150.083 236.043C152.746 236.391 155.486 236.799 158.305 237.265C159.988 237.543 161.693 237.84 163.42 238.157C166.042 238.636 168.704 239.155 171.386 239.711C174.071 240.272 176.772 240.864 179.489 241.488C180.175 241.648 180.861 241.807 181.552 241.973C182.394 242.173 183.236 242.378 184.078 242.587C184.608 242.717 185.139 242.847 185.67 242.983C186.301 243.142 186.937 243.302 187.569 243.461C191.728 244.524 195.864 245.658 199.899 246.845C200.563 247.04 201.226 247.241 201.885 247.436C203.203 247.832 204.508 248.233 205.802 248.641C206.159 248.753 206.511 248.865 206.863 248.978C207.746 249.261 208.62 249.545 209.485 249.828V249.834C209.535 249.846 209.585 249.864 209.636 249.881C210.267 250.088 210.894 250.295 211.516 250.507C212.985 251.004 214.429 251.504 215.849 252.008C216.792 252.35 217.725 252.687 218.645 253.03C220.022 253.549 221.372 254.069 222.685 254.589C223.01 254.719 223.334 254.849 223.655 254.973C224.616 255.363 225.558 255.75 226.482 256.136C227.214 256.443 227.928 256.756 228.633 257.07C229.337 257.383 230.028 257.696 230.705 258.009C231.145 258.209 231.575 258.416 232 258.617C232.623 258.912 233.226 259.208 233.821 259.509C234.004 259.597 234.183 259.692 234.361 259.781C234.695 259.946 235.02 260.117 235.34 260.289C235.555 260.395 235.766 260.507 235.976 260.625C236.182 260.732 236.393 260.844 236.594 260.956C236.8 261.062 237.001 261.174 237.202 261.293C237.372 261.381 237.536 261.476 237.697 261.57C238.021 261.753 238.346 261.936 238.662 262.125C238.818 262.22 238.973 262.309 239.129 262.403L239.486 262.616C239.536 262.651 239.586 262.681 239.637 262.71C240.025 262.946 240.401 263.183 240.767 263.419C241.11 263.643 241.444 263.868 241.764 264.086C242.144 264.346 242.505 264.6 242.853 264.86C242.922 264.907 242.99 264.96 243.059 265.008C243.292 265.179 243.516 265.356 243.741 265.527C244.18 265.876 244.596 266.219 244.985 266.561C245.37 266.904 245.726 267.24 246.06 267.577C246.06 267.583 246.06 267.583 246.065 267.583C246.225 267.748 246.381 267.914 246.527 268.073C246.765 268.339 246.985 268.593 247.186 268.853C247.253 268.933 247.318 269.018 247.378 269.107C247.405 269.135 247.429 269.167 247.451 269.201C247.547 269.337 247.643 269.473 247.735 269.609C247.845 269.774 247.945 269.94 248.042 270.105C248.087 270.188 248.138 270.27 248.179 270.353C248.234 270.453 248.289 270.56 248.334 270.66C248.376 270.743 248.412 270.831 248.449 270.914C248.546 271.127 248.629 271.35 248.696 271.582C248.746 271.739 248.787 271.901 248.819 272.066C248.854 272.223 248.88 272.383 248.897 272.544Z" fill="black"/>
</g>
<defs>
<clipPath id="clip0_8_454">
<rect width="360" height="338" fill="white"/>
</clipPath>
</defs>
</svg>
