<svg width="305" height="78" viewBox="0 0 305 78" fill="none" xmlns="http://www.w3.org/2000/svg">
<path fill-rule="evenodd" clip-rule="evenodd" d="M237.661 2.30631C198.34 -1.63787 172.231 -0.704518 119.943 6.51445C115.344 7.14896 108.154 8.13465 103.966 8.70492C69.4599 13.3992 21.1652 29.8379 7.78021 41.4446C5.00433 43.8516 0.0211737 50.886 3.84915e-05 52.4277C-0.00345568 52.6826 0.229842 52.312 1.15098 50.5992C5.39767 42.7026 16.585 36.5911 44.056 27.1609C60.2833 21.5901 77.9954 16.9549 92.5668 14.4661C103.69 12.5662 156.429 6.3893 158.195 6.78018C158.558 6.86014 156.544 7.26719 153.721 7.68455C123.391 12.1693 113.057 14.2398 94.7287 19.5051C80.5279 23.5845 72.1854 26.8424 50.8464 36.6437C42.8183 40.3308 43.0507 40.1855 42.9045 41.6246C42.5339 45.2702 43.5525 45.4834 50.137 43.1376C94.7898 27.232 121.369 22.778 162.913 24.2396C174.092 24.6329 212.777 28.6521 212.089 29.3486C211.696 29.7465 200.028 30.9938 180.479 32.727C136.743 36.6056 108.688 44.2847 77.6878 60.8622C69.0926 65.4584 67.5396 67.0531 68.2359 70.5661C68.9715 74.2759 73.8406 73.8737 97.6977 68.1309C133.427 59.5298 146.676 57.6993 175.183 57.4249C181.81 57.3613 193.184 57.8884 192.854 58.2441C192.762 58.3433 185.565 59.8745 176.861 61.6465C155.082 66.0797 141.097 69.5852 140.595 70.737C139.82 72.5129 139.999 75.2407 140.952 76.1705C142.113 77.3044 145.442 77.1939 153.118 75.7662C169.767 72.6696 186.372 71.9342 210.893 73.2069C214.563 73.3971 218.838 73.5039 220.392 73.444C224.009 73.3049 229.729 74.042 232.368 74.9877C233.499 75.3924 234.905 75.8933 235.493 76.1008C237.722 76.8868 230.011 72.6796 226.717 71.3128C218.462 67.8878 207.666 65.9702 194.836 65.6501C191.893 65.5767 189.46 65.4366 189.43 65.3392C189.368 65.134 192.359 64.5993 206.846 62.2273C217.954 60.408 218.233 60.3006 218.692 57.6773C218.983 56.0129 218.743 53.9577 218.129 52.8549C217.665 52.0207 201.504 50.1866 192.72 49.9713C171.66 49.4554 160.491 49.8884 146.424 51.7651C132.191 53.6642 122.724 55.78 99.0291 62.3585C84.6033 66.3637 77.0114 68.2065 74.4769 68.3191L72.9059 68.3888L74.8233 67.1536C80.7378 63.3445 100.397 54.7243 111.565 51.0434C134.765 43.3967 150.587 40.5541 186.03 37.6643C215.812 35.2364 221.92 34.1463 222.42 31.171C222.959 27.9652 222.104 25.9095 219.674 24.5746C216.36 22.7542 175.213 17.8182 160.61 17.4891C146.291 17.1667 129.27 17.9187 120.264 19.2721C119.307 19.4159 118.266 19.4715 117.948 19.3959C115.617 18.8402 147.87 13.5804 166.31 11.5092C186.512 9.24038 202.48 8.48472 224.6 8.75078C238.903 8.92327 275.344 14.3072 290.074 18.425C303.718 22.2396 304.209 22.3305 304.64 21.1357C305.09 19.8894 305.115 18.9256 304.731 17.6661C304.242 16.0631 301.376 14.8789 294.85 13.5815C292.447 13.1039 287.149 11.74 283.076 10.5501C279.002 9.36075 273.964 7.94289 271.882 7.39925C267.951 6.37364 246.74 3.21709 237.661 2.30631ZM164.772 6.39666C164.659 6.51844 164.436 6.49824 164.277 6.35139C164.118 6.20454 164.212 6.10499 164.484 6.13006C164.756 6.15514 164.886 6.27488 164.772 6.39666ZM162.62 6.64145C162.416 6.73312 162.044 6.68837 161.795 6.54235C161.546 6.39581 161.713 6.32077 162.167 6.37513C162.621 6.43 162.825 6.54979 162.62 6.64145ZM160.384 6.85758C160.133 6.93926 159.725 6.88678 159.477 6.7409C159.228 6.59502 159.434 6.52836 159.933 6.59254C160.432 6.6567 160.635 6.7759 160.384 6.85758ZM116.994 19.6888C116.789 19.7808 116.454 19.7378 116.252 19.5933C116.049 19.4483 116.218 19.3729 116.626 19.4254C117.034 19.4779 117.2 19.5963 116.994 19.6888ZM115.173 19.9304C115.058 20.054 114.872 20.0301 114.76 19.8774C114.649 19.7252 114.743 19.6243 114.97 19.6535C115.197 19.6827 115.288 19.8074 115.173 19.9304ZM236.928 76.9021C237.039 77.0548 237.225 77.0787 237.34 76.9551C237.455 76.8321 237.364 76.7074 237.137 76.6782C236.91 76.649 236.816 76.7499 236.928 76.9021Z" fill="black"/>
</svg>
