<svg width="305" height="329" viewBox="0 0 305 329" fill="none" xmlns="http://www.w3.org/2000/svg">
<g clip-path="url(#clip0_64_2)">
<mask id="mask0_64_2" style="mask-type:alpha" maskUnits="userSpaceOnUse" x="0" y="0" width="321" height="361">
<path d="M160.388 360.803C248.968 360.803 320.776 280.035 320.776 180.402C320.776 80.7686 248.968 0 160.388 0C71.8081 0 0 80.7686 0 180.402C0 280.035 71.8081 360.803 160.388 360.803Z" fill="white"/>
</mask>
<g mask="url(#mask0_64_2)">
<path d="M223.095 263.926C197.718 346.906 129.923 372.532 94.0754 269.465C89.1457 255.29 102.035 250.015 111.049 243.778C117.224 239.506 120.467 235.801 120.091 231.982C118.316 213.962 110.633 163.829 110.633 163.829L109.851 162.213C109.851 162.213 110.038 161.761 109.303 162.561C108.536 163.396 106.768 172.113 99.8012 172.113C93.5546 172.113 87.2129 169.067 84.1781 147.986C83.0797 140.357 83.703 120.356 91.4415 116.744C94.6393 115.252 97.5894 114.718 100.467 116.51C103.345 118.301 97.1469 110.387 129.156 81.2861C149.962 62.3698 182.827 59.5974 196.088 62.7912C209.35 65.985 222.611 73.0671 228.477 88.0638C235.594 106.261 221.846 120.002 224.865 161.445C224.315 176.418 225.103 209.28 187.335 220.294C180.162 222.386 182.387 233.819 193.147 236.614C210.311 242.483 223.109 256.811 223.109 263.964" fill="white"/>
<path fill-rule="evenodd" clip-rule="evenodd" d="M223.105 134.938L223.146 134.548C224.206 124.373 225.234 114.513 230.099 105.656C231.753 106.892 231.56 108.457 231.043 109.908C225.941 124.218 226.409 139.085 226.877 153.944C226.919 155.246 226.96 156.547 226.997 157.848C227.53 176.413 223.285 193.291 211.938 207.474C208 212.396 202.787 215.782 197.464 218.739C191.998 221.777 190.849 224.353 192.554 230.912C192.616 231.151 192.693 231.392 192.77 231.633C193.119 232.729 193.473 233.839 192.503 234.923C191.345 236.217 190.079 235.848 188.71 235.448C188.659 235.433 188.607 235.418 188.555 235.403C175.658 231.65 164.121 224.919 153.454 216.321C151.938 215.1 150.691 213.433 149.484 211.821V211.821L149.406 211.716C148.771 210.868 148.658 209.543 149.547 208.795C150.379 208.094 151.034 208.669 151.762 209.308C151.855 209.389 151.949 209.472 152.045 209.553C157.801 214.427 164.141 217.627 171.568 218.431C175.003 218.804 178.403 218.667 181.8 218.529H181.8C183.712 218.452 185.622 218.375 187.537 218.389C190.16 218.407 192.315 217.08 194.366 215.816C194.61 215.666 194.852 215.516 195.094 215.37C202.227 211.054 209 206.214 213.599 198.417C217.72 191.43 220.216 183.819 221.685 175.81C223.541 165.701 223.373 155.48 223.202 145.117C223.147 141.739 223.091 138.347 223.105 134.938ZM94.1814 113.872C99.7899 113.38 102.914 117.004 105.544 121.202C108.778 126.365 110.501 132.217 111.265 138.396C111.393 139.432 111.526 140.534 110.953 141.549C109.822 141.715 109.715 140.736 109.698 140.001C109.555 134.224 107.206 129.183 104.844 124.305C103.159 120.825 100.682 117.453 96.8095 116.597C92.3948 115.621 88.3339 119.948 86.338 125.615C82.6411 136.111 83.2541 146.441 86.6936 156.614C88.1986 161.066 90.0733 165.601 93.8276 168.707C97.629 171.852 102.206 171.297 104.997 167.12C105.156 166.881 105.325 166.645 105.494 166.408H105.494H105.494C106.006 165.692 106.521 164.97 106.797 164.158C107.336 162.564 108.161 161.05 109.673 161.272C111.421 161.528 111.752 163.593 111.915 165.206C113.401 179.859 115.463 194.419 117.526 208.98C118.038 212.593 118.549 216.206 119.052 219.82C119.718 224.602 120.49 231.471 119.973 234.392C119.936 234.599 119.915 234.804 119.895 234.999C119.816 235.764 119.751 236.393 118.831 236.544C117.583 236.749 117.019 235.96 116.866 234.736C116.271 229.983 116.107 228.159 115.852 220.889C115.604 213.841 114.39 206.895 113.176 199.95L113.176 199.95C112.735 197.43 112.295 194.91 111.901 192.386C110.559 183.79 109.244 175.072 109.126 165.283C108.948 165.571 108.773 165.856 108.602 166.135C106.668 169.285 105.089 171.856 102.327 172.857C97.7412 174.52 93.7287 173.289 90.5147 169.336C86.8514 164.83 84.472 159.702 83.1335 153.747C81.0036 144.269 80.6091 134.985 83.3715 125.618C84.6954 121.124 89.4434 113.14 94.1814 113.872ZM103.061 149.506C104.181 150.384 105.196 151.18 106.132 148.003C105.831 136.182 102.358 128.637 96.945 128.351C99.8334 132.422 102.603 136.395 102.837 141.906C101.625 141.304 100.846 140.357 100.099 139.449C99.5788 138.817 99.0742 138.204 98.4503 137.74C98.1844 137.542 97.9243 137.323 97.662 137.103C96.4511 136.084 95.1937 135.026 93.1021 135.82C94.0831 137.45 95.4344 138.599 96.7727 139.739C98.3182 141.054 99.8465 142.355 100.767 144.362C98.0479 146.498 96.8776 149.309 98.2889 152.702C99.5132 155.646 101.324 158.079 104.91 158.257C104.776 156.489 103.707 155.203 102.668 153.953C101.404 152.432 100.185 150.966 100.748 148.754C101.567 148.334 102.336 148.937 103.061 149.506Z" fill="black"/>
<path d="M327.231 414.924L-6.74734 414.002C-6.74734 414.002 1.81819 355.394 17.8969 322.071C22.2696 313.011 38.6703 286.094 54.2151 269.066C64.6672 257.617 76.6973 253.395 77.0352 251.715C77.5767 249.023 74.188 240.164 74.769 238.175C76.8471 231.063 77.1978 238.416 85.5541 229.3C90.2337 224.194 85.9063 221.008 91.0854 217.223C98.7231 211.641 106.469 214.797 113.361 215.099C117.965 215.3 116.543 229.151 120.367 232.554C130.692 241.745 143.874 247.649 153.176 250.323C164.971 253.715 168.926 249.601 175.031 246.907C181.136 244.213 184.894 250.297 192.681 237.614C196.312 231.702 189.846 225.725 194.792 222.533C202.532 217.538 214.208 217.69 219.044 220.384C226.449 224.509 223.221 232.015 223.221 232.015C223.221 232.015 232.375 235.249 234.261 238.158C236.072 240.95 235.542 250.44 235.542 250.44C235.542 250.44 234.797 246.616 251.748 257.021C273.318 270.261 297.674 309.323 308.893 339.76C320.816 372.11 327.231 414.924 327.231 414.924Z" fill="white"/>
<path d="M325.603 414.924C323.189 404.155 321.262 393.339 319.032 382.588C317.421 374.821 315.445 367.199 313.29 359.628C310.852 351.062 308.294 342.555 304.827 334.343C302.388 328.569 299.869 322.862 297.27 317.169C293.094 308.024 287.947 299.606 282.501 291.345C277.864 284.311 272.808 277.668 267.014 271.772C260.685 265.313 253.515 259.911 245.736 255.74C244.953 255.321 244.06 255.075 243.376 254.518C239.04 250.986 234.747 252.756 231.901 258.13C224.025 273.008 211.775 279.834 196.76 281.993C196.22 282.095 195.668 282.096 195.127 281.997C193.687 281.656 191.638 281.672 191.809 279.448C191.957 277.531 193.838 278.206 195.053 278.031C206.246 276.412 216.577 272.56 224.08 262.85C227.266 258.728 229.634 253.81 232.106 249.086C234.726 244.077 232.721 236.494 226.046 234.961C223.027 234.268 221.037 233.212 221.877 228.984C222.412 226.292 220.648 223.713 218.501 222.568C215.832 221.142 212.956 220.011 209.682 220.994C206.663 221.9 203.475 222.14 200.36 222.663C198.548 222.966 197.236 224.291 195.774 225.304C194.641 226.09 194.645 227.093 195.127 228.393C196.923 233.236 195.375 239.489 191.564 242.636C187.787 245.755 183.77 248.275 178.747 247.757C177.495 247.628 176.479 248.096 175.475 249.008C171.86 252.293 167.674 253.044 162.988 252.989C153.043 252.872 143.981 249.462 135.01 245.359C133.02 244.449 131.538 241.854 128.234 243.253C135.148 253.011 145.381 256.787 155.286 262.159C152.643 263.973 150.744 263.665 148.918 262.987C135.772 258.11 125.389 249.691 118.906 235.885C116.747 231.288 115.094 226.668 114.266 221.613C113.693 218.111 112.819 217.766 109.754 219.285C106.383 220.956 103.39 223.279 100.617 225.887C97.4238 228.889 95.471 232.571 95.9782 237.476C96.2218 239.831 95.9943 242.241 96.0294 244.625C96.124 250.846 99.5785 255.762 105.043 257.484C106.852 258.054 108.495 258.918 109.76 260.502C106.018 262.345 99.3759 260.176 96.1888 256.077C87.5415 244.957 90.9674 225.705 102.795 218.947C103.181 218.727 103.56 218.49 104.096 218.169C98.635 215.067 92.2096 218.315 90.2273 223.486C88.1576 228.885 84.9582 232.848 80.1723 235.485C76.2541 237.645 75.1105 243.521 78.1805 246.502C84.1651 252.313 89.1849 259.309 96.076 264.004C100.029 266.696 103.802 269.895 108.055 271.815C112.102 273.643 116.658 274.165 121.014 275.132C122.293 275.416 123.622 275.345 124.41 276.686C124.479 277.652 123.974 278.249 123.299 278.216C115.052 277.821 107.044 277.006 99.7097 271.821C93.3613 267.333 87.4511 262.424 82.0665 256.677C79.2042 253.622 76.1214 254.975 73.325 256.693C63.3266 262.836 54.7501 270.904 46.982 280.084C38.1695 290.498 30.8095 302.03 24.5937 314.424C19.6968 324.187 15.2944 334.184 11.6439 344.642C8.36201 354.047 5.30684 363.533 2.825 373.175C0.426411 382.493 -1.6581 391.967 -2.43867 401.707C-2.77785 405.941 -4.30723 410.011 -4.46427 414.625C-5.88426 414.921 -7.22304 414.921 -8.849 414.921C-7.67212 405.704 -6.32411 396.461 -4.69893 387.277C-3.7544 381.936 -2.33057 376.699 -1.1875 371.397C0.234022 364.804 2.25295 358.421 4.24575 352.018C6.58644 344.497 9.16282 337.085 12.1419 329.841C16.1045 320.232 20.6613 310.93 25.781 301.996C30.0853 294.465 34.9706 287.348 40.3831 280.722C49.7559 269.256 59.9215 258.923 72.6394 251.941C74.279 251.04 75.0173 249.993 73.6997 247.73C71.3065 243.619 72.1855 234.972 77.6111 232.262C81.8605 230.138 84.4254 226.123 86.3941 221.695C89.0857 215.643 93.76 212.571 99.5724 212.39C104.574 212.233 109.602 212.181 114.619 212.113C116.945 212.082 118.25 212.563 117.227 215.644C116.584 217.584 116.787 219.697 118.588 221.101C119.148 221.478 119.528 222.106 119.625 222.817C120.758 231.449 126.571 235.566 132.972 238.947C138.049 241.628 143.108 244.612 148.481 246.292C154.064 248.038 159.864 249.678 165.806 249.227C168.343 249.052 170.759 247.987 172.696 246.19C174.307 244.686 176.348 244.844 178.239 244.424C182.576 243.462 186.565 241.667 189.75 238.236C192.643 235.119 192.828 232.089 190.613 228.384C188.625 225.058 189.764 218.919 192.783 216.97C193.678 216.393 195.02 216.179 195.311 217.424C196.054 220.604 197.818 219.265 199.37 218.757C203.992 217.244 208.635 216.167 213.53 216.473C217.187 216.702 220.168 218.213 222.858 220.819C224.854 222.751 225.353 225.192 225.365 227.885C225.374 230.022 225.982 231.22 228.208 231.777C234.525 233.358 236.855 236.728 236.952 243.83C236.972 245.312 237.303 246.153 238.578 246.905C247.442 252.121 256.6 256.787 264.59 263.646C272.089 270.082 278.175 277.955 283.938 286.126C294.625 301.193 303.293 317.841 309.684 335.57C314.35 348.577 318.316 361.87 321.563 375.38C324.666 388.253 325.664 401.509 328.519 414.67C327.698 414.924 326.787 414.924 325.603 414.924Z" fill="black"/>
<path d="M195.358 184.415C197.207 186.825 197.681 189.988 200.519 191.378C201.675 191.944 201.148 193.539 199.785 193.944C198.966 194.187 198.047 194.14 197.183 194.072C191.448 193.63 185.736 193.137 179.989 194.21C177.998 194.581 175.876 194.141 173.816 194.028C172.719 193.967 171.904 193.361 171.781 192.123C171.657 190.885 172.685 190.336 173.451 190.312C176.967 190.203 178.846 187.454 180.815 184.978C182.568 182.774 184.655 182.354 187.168 182.326C190.03 182.295 192.984 181.205 195.358 184.415Z" fill="black"/>
<path d="M191.401 201.267C188.835 201.591 186.406 202.211 184.239 199.531C186.634 198.173 188.807 198.342 190.874 198.186C191.639 198.128 192.648 198.705 192.827 199.768C192.964 200.583 192.255 200.938 191.401 201.267Z" fill="black"/>
<path d="M147.932 205.265C147.932 202.473 163.971 216.752 180.402 212.252C186.666 210.537 184.588 201.978 184.588 201.978L190.37 201.345C190.37 201.345 189.527 209.302 191.742 210.262C201.1 214.321 212.62 196.746 213.484 201.037C214.904 208.082 208.47 217.909 206.297 221.723C203.159 227.231 197.242 233.086 193.206 233.88C172.152 238.027 147.932 213.615 147.932 205.265Z" fill="black"/>
<path d="M187.613 165.517C186.323 165.555 185.384 165.388 184.544 164.71C183.823 164.128 183.716 163.362 183.861 162.497C184.013 161.582 184.691 161.445 185.35 161.48C188.978 161.672 192.523 161.36 195.889 159.7C196.712 159.295 197.434 159.639 197.851 160.436C198.305 161.3 198.366 162.191 197.667 163.057C196.365 164.668 194.798 165.546 192.805 165.51C191.171 165.48 189.536 165.513 187.613 165.517Z" fill="black"/>
<path d="M206.275 135.627C209.619 135.719 212.774 135.94 215.91 136.33C216.667 136.425 217.171 137.259 217.188 138.189C217.206 139.119 216.738 139.766 215.978 140.129C213.116 141.496 210.336 142.449 207.342 140.202C205.683 138.957 205.06 137.78 206.275 135.627Z" fill="black"/>
<path d="M166.696 136.385C168.268 137.322 168.005 138.362 167.224 139.413C165.561 141.649 159.998 142.23 157.887 140.382C156.686 139.331 156.023 137.976 156.772 136.357C157.547 134.684 158.873 134.985 160.123 135.669C162.168 136.79 164.304 136.53 166.696 136.385Z" fill="black"/>
<path fill-rule="evenodd" clip-rule="evenodd" d="M184.971 118.471H184.972C198.3 118.567 211.42 118.662 224.54 118.778C225.738 118.821 226.932 118.936 228.119 119.123C229.942 119.36 230.783 120.293 231.188 122.486C232.782 131.107 231.905 139.538 229.579 147.748C228.181 152.687 224.458 155.593 219.961 157.122C214.086 159.118 208.062 160.581 202.079 158.212C196.767 156.107 192.556 152.624 191.101 145.932C190.919 145.095 190.691 144.275 190.465 143.457C189.821 141.135 189.184 138.84 189.626 136.282C189.815 135.185 188.842 134.644 188.076 134.218L188.069 134.214C184.229 132.077 180.46 134.16 179.767 138.819C179.006 143.93 177.461 148.827 174.807 153.014C170.569 159.698 164.137 161.226 157.128 160.322C151.608 159.609 146.839 157.083 142.731 152.891C139.055 149.14 137.193 144.634 137.588 139.253C137.819 136.122 136.199 134.698 134.078 134.304C130.411 133.622 127.012 132.111 123.63 130.608H123.63C122.414 130.067 121.199 129.527 119.975 129.027C118.133 128.275 116.261 127.634 114.391 126.994H114.391C112.332 126.289 110.275 125.584 108.261 124.733C108.17 124.695 108.079 124.658 107.99 124.621H107.99C107.012 124.221 106.191 123.886 106.351 122.255C107.812 121.512 109.154 121.989 110.544 122.483C111.463 122.81 112.404 123.145 113.414 123.138C112.726 120.628 111.293 119.68 108.992 119.569C106.232 119.435 103.766 118.401 101.939 115.886C103.162 114.586 104.252 114.679 105.316 114.994C110.79 116.614 116.382 117.533 121.976 118.453C126.586 119.21 131.197 119.968 135.743 121.118C138.378 121.785 141.21 121.797 143.695 119.323C145.287 117.738 147.661 117.791 149.835 117.839C150.104 117.845 150.37 117.851 150.631 117.853C157.1 117.919 163.568 118.074 170.152 118.232H170.152C172.881 118.297 175.629 118.363 178.405 118.423C180.6 118.439 182.788 118.455 184.971 118.471ZM139.953 136.83C140.815 148.488 146.805 154.434 156.036 156.672C162.075 158.136 169.427 156.71 173.151 149.187C175.247 144.952 176.436 140.484 177.509 135.888C178.501 131.642 181.156 130.286 186.64 130.785C190.302 131.118 191.988 132.977 192.481 137.063C192.85 140.126 193.269 143.184 193.767 146.226C194.396 150.068 198.745 154.701 202.301 155.479C207.767 156.713 213.441 156.257 218.683 154.164C221.752 152.951 224.551 151.265 226.03 147.737C228.612 141.575 229.384 135.08 229.303 128.392C229.229 122.266 228.89 121.853 223.078 121.827C219.468 121.812 215.858 121.816 212.249 121.821C207.243 121.827 202.238 121.834 197.234 121.786C190.836 121.725 184.439 121.636 178.041 121.546H178.041C170.597 121.441 163.154 121.337 155.71 121.278C154.818 121.271 153.897 121.177 152.972 121.082C150.22 120.8 147.428 120.514 145.225 122.508C142.935 124.581 140.657 124.575 138.205 124.568H138.205C137.911 124.567 137.614 124.566 137.315 124.569C136.675 124.575 136.043 124.431 135.405 124.286C134.328 124.041 133.231 123.791 132.038 124.249C132.376 128.389 133.24 132.009 137.658 132.975C139.285 133.33 140.15 134.326 139.952 136.83H139.953ZM120.532 121.903C122.798 121.582 124.891 121.285 125.629 124.852H125.628C126.017 126.178 126.309 127.013 126.668 128.039L126.673 128.052C123.341 127.278 120.736 125.894 119.467 122.04C119.823 122.003 120.18 121.953 120.532 121.903Z" fill="black"/>
<path d="M174.934 126.988C174.761 125.311 175.735 124.938 176.731 124.935C181.617 124.918 186.505 124.939 191.389 125.078C192.503 125.084 193.551 125.654 194.226 126.621C192.458 128.873 180.502 129.244 174.934 126.988Z" fill="black"/>
<path d="M164.307 117.858C158.831 116.29 156.74 117.313 153.671 122.729C153.057 123.816 152.805 125.903 150.957 124.687C149.52 123.741 149.6 122.208 150.278 120.598C152.23 115.957 155.451 113.043 160.02 112.018C164.291 111.06 168.956 114.697 169.634 119.385C169.849 120.877 169.657 122.206 168.399 123.186C165.533 122.847 166.346 119.221 164.307 117.858Z" fill="black"/>
<path d="M206.507 117.211C210.119 115.474 213.424 113.766 217.068 116.697C218.381 117.728 219.39 119.155 219.973 120.802C220.481 122.185 220.564 123.788 219.265 124.661C217.819 125.632 217.194 124.054 216.469 123.086C213.792 119.513 211.756 119.262 208.162 121.801C207.13 122.53 206.423 124.035 204.712 123.772C203.243 121.072 204.674 119.191 206.507 117.211Z" fill="black"/>
<path d="M95.1247 107.452C93.8048 98.0951 96.9676 79.0681 100.22 71.4296C103.472 63.7912 112.455 46.3881 118.595 41.9362C124.735 37.4843 138.541 30.7664 143.2 27.8807C147.859 24.9951 158.673 22.3506 166.01 22.6963C173.347 23.042 182.641 24.8841 190.404 28.2264C198.168 31.5688 209.201 37.3278 214.798 44.2408C220.395 51.1538 221.299 50.5996 226.011 59.0126C230.723 67.4254 231.435 72.6412 233.294 75.7211C235.153 78.801 241.433 82.8479 246.467 89.859C251.501 96.8701 253.75 97.9212 255.357 104.348C256.963 110.774 257.217 112.439 255.999 114.747C254.781 117.054 252.176 120.706 249.037 120.706C245.899 120.706 241.873 121.293 237.257 117.434C232.64 113.576 228.432 112.644 225.047 107.97C221.663 103.296 218.192 103.88 214.23 99.5573C210.268 95.2348 207.129 96.2105 199.771 93.5974C192.414 90.9842 190.561 96.2849 183.599 92.6628C176.638 89.0407 175.246 92.1955 170.319 95.5839C165.392 98.9724 160.573 102.478 155.325 104.464C150.077 106.45 138.082 110.305 133.048 109.605C128.014 108.905 121.696 105.983 116.233 109.955C110.771 113.928 108.843 115.213 106.702 116.031C104.56 116.849 104.768 116.651 102.744 114.665C100.72 112.678 101.172 112.538 99.2445 111.837C97.3168 111.136 95.1247 107.452 95.1247 107.452Z" fill="white"/>
<path fill-rule="evenodd" clip-rule="evenodd" d="M103.811 123.799C103.554 123.092 103.336 122.394 103.124 121.716C102.7 120.359 102.301 119.083 101.664 117.968C99.9072 114.899 101.059 113.212 103.491 111.675C104.974 110.738 106.379 109.651 107.783 108.566L107.783 108.566L107.783 108.566C108.063 108.349 108.343 108.132 108.624 107.917C113.651 104.06 118.803 103.149 124.56 106.245C130.024 109.184 135.755 108.237 141.514 106.896C153.734 104.052 164.629 98.1426 175.132 90.9445C181.957 86.2377 189.425 82.7472 197.257 80.6036C205.643 78.3546 214.29 78.7987 222.746 81.747C228.701 83.8235 234.575 86.0574 239.417 90.4031C245.365 95.7412 251.031 101.478 253.469 109.883C253.511 110.028 253.558 110.179 253.607 110.335C253.994 111.569 254.469 113.079 252.887 113.544C251.726 113.887 251.417 112.796 251.122 111.758C251.033 111.441 250.944 111.129 250.833 110.864C246.683 100.947 239.879 93.8257 231.135 88.8162C221.116 83.0768 210.412 81.7042 199.373 83.5793C196.172 84.1231 193.213 85.5256 190.115 86.994C188.213 87.895 186.259 88.821 184.166 89.5882C185.775 90.5185 187.097 90.6591 188.378 90.7958H188.38C188.545 90.8134 188.709 90.831 188.874 90.85C201.129 92.2773 212.93 95.2837 223.085 103.417C224.693 104.705 226.17 106.184 227.648 107.663L227.649 107.663C228.971 108.987 230.293 110.31 231.71 111.498C231.835 111.603 231.96 111.708 232.085 111.813C235.912 115.026 239.753 118.251 244.744 119.278C252.014 120.774 256.832 115.416 254.934 107.673C252.814 99.0252 247.338 92.8067 241.625 86.963C234.998 80.1852 227.316 75.2037 218.687 71.7736C207.955 67.5079 196.924 66.8764 185.811 67.9783C174.741 69.0758 163.801 71.4413 153.393 75.8516C148.138 78.0785 143.049 80.7945 137.972 83.5041V83.5044C137.283 83.8724 136.593 84.2405 135.903 84.6069C125.712 90.0247 116.882 97.6141 108.055 105.202C106.661 106.399 105.268 107.597 103.869 108.786C103.319 109.254 102.92 109.907 102.517 110.567C101.777 111.778 101.022 113.014 99.2924 113.181C98.8419 110.093 100.769 108.25 102.379 106.71C102.503 106.591 102.625 106.474 102.744 106.359C108.667 100.613 114.665 94.9129 121.4 90.2796C123.186 89.0499 123.716 87.5035 123.858 85.2704C124.69 71.6297 127.988 58.303 133.559 46.0574C134.167 44.7165 134.75 43.3615 135.333 42.0054C137.099 37.9005 138.869 33.786 141.36 30.024C126.45 36.0888 115.248 46.8168 107.014 61.669C98.7498 76.5768 96.7304 92.9014 97.4074 110.506C95.1475 109.111 95.0506 107.509 94.9566 105.876C94.2368 93.3584 95.5138 81.119 99.9871 69.5129C104.419 58.012 110.807 47.9411 119.718 39.9286C126.476 33.8515 133.802 28.8809 142.254 26.1049C143.854 25.5797 144.387 24.2249 144.964 22.7584C145.001 22.6641 145.038 22.5694 145.076 22.4744C146.636 18.5482 147.528 18.3302 150.349 21.1133C151.753 22.4979 153.09 22.8983 155.07 22.4889C163.302 20.7869 171.503 21.1781 179.753 22.9612C197.962 26.8969 212.484 37.2358 223.8 52.9612C228.291 59.2012 231.786 66.2445 233.86 73.9782C234.547 76.5125 236.013 78.711 238.012 80.2034C245.657 86.1743 251.823 93.5238 255.968 102.817C257.838 107.01 258.505 111.638 256.436 115.468C253.941 120.089 250.02 122.686 244.345 121.598C239.723 120.712 235.945 118.608 232.419 115.561C231.151 114.465 229.898 113.344 228.646 112.224C223.442 107.566 218.241 102.912 211.885 100.044C201.708 95.4003 190.732 93.2049 179.707 93.6074C176.218 93.7334 173.266 95.8011 170.363 97.8351H170.363C169.666 98.3234 168.972 98.8097 168.273 99.2666C157.902 106.052 146.396 109.008 134.683 111.246C132.193 111.722 129.635 111.291 127.224 110.503C125.306 109.876 124.38 110.719 123.65 112.447C121.031 118.634 119.02 124.968 118.956 131.91C118.937 134.021 118.752 136.128 118.567 138.237C118.471 139.33 118.375 140.424 118.302 141.517C118.189 143.22 117.385 144.189 115.828 144.224C115.449 144.233 115.068 144.25 114.686 144.268H114.686C113.108 144.341 111.501 144.414 109.819 143.861C108.982 139.663 107.634 135.63 106.262 131.528C105.416 128.997 104.561 126.439 103.811 123.799ZM186.481 31.1789C177.718 26.829 168.388 25.206 158.896 24.9296C149.987 24.6703 143.821 29.9181 140.237 38.3876C139.577 39.9482 138.906 41.5035 138.234 43.0589C135.128 50.2514 132.021 57.4476 129.998 65.1986C128.323 71.6127 127.461 78.0642 126.497 85.2824V85.2827C126.441 85.7019 126.385 86.1242 126.328 86.5488C154.688 68.786 184.241 60.4542 216.426 67.0916C213.567 58.293 208.194 51.9751 202.906 45.7553L202.905 45.7553C202.758 45.5821 202.611 45.4091 202.464 45.236C197.927 39.8971 192.994 34.8258 186.481 31.1778V31.1789ZM194.394 32.2068C198.682 33.7996 202.644 35.972 206.139 39.1142V39.1131C217.933 48.1815 225.711 59.9519 230.799 74.0212C228.112 73.1247 225.694 71.7815 223.305 70.4545C222.558 70.0394 221.813 69.6261 221.064 69.2281C219.898 68.6085 219.178 66.833 218.509 65.1797C218.34 64.7643 218.175 64.3567 218.007 63.977C212.598 51.7773 204.616 41.9091 195.016 33.4799C194.653 33.1704 194.427 32.7079 194.394 32.2068Z" fill="black"/>
</g>
</g>
<defs>
<clipPath id="clip0_64_2">
<rect width="305" height="329" fill="white"/>
</clipPath>
</defs>
</svg>
